<svg width="10" height="20" viewBox="0 0 10 20" fill="none" xmlns="http://www.w3.org/2000/svg">
<path d="M6.49342 9.04101C6.74338 9.29105 6.8838 9.63013 6.8838 9.98368C6.8838 10.3372 6.74338 10.6763 6.49342 10.9263L0.380086 17.041C0.137208 17.2925 0.00281525 17.6293 0.00585365 17.9789C0.00889111 18.3285 0.149117 18.6629 0.396329 18.9101C0.643539 19.1573 0.977955 19.2975 1.32755 19.3006C1.67715 19.3036 2.01395 19.1692 2.26542 18.9263L8.37475 12.8117C9.12464 12.0616 9.5459 11.0443 9.5459 9.98368C9.5459 8.92302 9.12464 7.90579 8.37475 7.15568L2.26009 1.04101C2.00862 0.798134 1.67181 0.663742 1.32222 0.666779C0.972622 0.669817 0.638206 0.810043 0.390994 1.05725C0.143784 1.30446 0.00355816 1.63888 0.000520706 1.98848C-0.0025177 2.33807 0.131875 2.67488 0.374753 2.92635L6.49342 9.04101Z" fill="white"/>
</svg>
