<svg width="11" height="20" viewBox="0 0 11 20" fill="none" xmlns="http://www.w3.org/2000/svg">
<path d="M3.71898 10.9263C3.46902 10.6762 3.3286 10.3372 3.3286 9.98361C3.3286 9.63005 3.46902 9.29098 3.71898 9.04094L9.83232 2.92627C10.0752 2.6748 10.2096 2.338 10.2065 1.9884C10.2035 1.63881 10.0633 1.30439 9.81607 1.05718C9.56886 0.80997 9.23445 0.669745 8.88485 0.666707C8.53526 0.663669 8.19845 0.798062 7.94698 1.04094L1.83765 7.15561C1.08777 7.90572 0.666504 8.92295 0.666504 9.98361C0.666504 11.0443 1.08777 12.0615 1.83765 12.8116L7.95232 18.9263C8.20379 19.1692 8.54059 19.3035 8.89018 19.3005C9.23978 19.2975 9.5742 19.1572 9.82141 18.91C10.0686 18.6628 10.2088 18.3284 10.2119 17.9788C10.2149 17.6292 10.0805 17.2924 9.83765 17.0409L3.71898 10.9263Z" fill="white"/>
</svg>
